<?xml version="1.0" encoding="utf-8"?>
<svg version="1.1" id="Layer_1" xmlns="http://www.w3.org/2000/svg" xmlns:xlink="http://www.w3.org/1999/xlink" x="0px" y="0px"
	 width="286.299px" height="110.551px" viewBox="0 0 286.299 110.551" enable-background="new 0 0 286.299 110.551"
	 xml:space="preserve">
<g>
	<defs>
		<rect id="SVGID_1_" width="286.299" height="110.551"/>
	</defs>
	<clipPath id="SVGID_2_">
		<use xlink:href="#SVGID_1_"  overflow="visible"/>
	</clipPath>
	<path clip-path="url(#SVGID_2_)" fill="#FFFFFF" d="M46.82,76.423h-0.232c-3.83,6.499-10.561,9.285-18.221,9.285
		c-18.104,0-26.924-15.552-26.924-32.147c0-16.132,8.936-31.103,26.576-31.103c7.079,0,14.043,3.018,17.756,8.937h0.232V1.221h16.48
		v82.862H46.82V76.423z M32.429,34.875c-10.793,0-14.507,9.285-14.507,19.149c0,9.4,4.295,19.265,14.507,19.265
		c10.909,0,14.159-9.517,14.159-19.381C46.588,44.161,43.106,34.875,32.429,34.875"/>
	<path clip-path="url(#SVGID_2_)" fill="#FFFFFF" d="M86.995,57.899c0.464,10.445,5.57,15.203,14.739,15.203
		c6.615,0,11.953-4.063,12.998-7.776h14.506c-4.642,14.159-14.506,20.194-28.085,20.194c-18.917,0-30.638-12.998-30.638-31.567
		c0-17.988,12.418-31.683,30.638-31.683c20.426,0,30.29,17.177,29.13,35.629H86.995z M113.803,47.455
		c-1.509-8.356-5.106-12.766-13.114-12.766c-10.445,0-13.462,8.124-13.694,12.766H113.803z"/>
	<path clip-path="url(#SVGID_2_)" fill="#FFFFFF" d="M158.536,23.896h12.069V34.92h-12.069v29.71c0,5.57,1.393,6.963,6.962,6.963
		c1.741,0,3.366-0.116,5.107-0.464v12.882c-2.785,0.464-6.383,0.58-9.632,0.58c-10.098,0-18.917-2.321-18.917-14.275V34.92h-9.981
		V23.896h9.981V5.908h16.48V23.896z"/>
	<path clip-path="url(#SVGID_2_)" fill="#FFFFFF" d="M177.421,42.348c0.928-15.435,14.737-20.077,28.2-20.077
		c11.953,0,26.345,2.669,26.345,17.06v31.218c0,5.455,0.58,10.909,2.089,13.346h-16.713c-0.58-1.855-1.044-3.829-1.16-5.802
		c-5.223,5.454-12.882,7.427-20.193,7.427c-11.373,0-20.426-5.687-20.426-17.987c0-13.578,10.213-16.828,20.426-18.221
		c10.097-1.508,19.497-1.16,19.497-7.891c0-7.079-4.874-8.124-10.677-8.124c-6.267,0-10.328,2.553-10.909,9.052H177.421z
		 M215.485,54.534c-2.786,2.437-8.588,2.553-13.693,3.481c-5.107,1.044-9.749,2.785-9.749,8.819c0,6.151,4.758,7.66,10.097,7.66
		c12.882,0,13.346-10.213,13.346-13.812V54.534z"/>
	<rect x="268.377" y="1.033" clip-path="url(#SVGID_2_)" fill="#FFFFFF" width="16.48" height="82.862"/>
	<path clip-path="url(#SVGID_2_)" fill="#FFFFFF" d="M250.466,29.733c-2.981,0-5.762-0.834-8.146-2.257v56.419h16.48V27.363
		C256.375,28.856,253.525,29.733,250.466,29.733"/>
	<path clip-path="url(#SVGID_2_)" fill="#FFFFFF" d="M262.908,13.327c0,6.785-5.571,12.286-12.442,12.286
		c-6.872,0-12.442-5.501-12.442-12.286c0-6.785,5.57-12.286,12.442-12.286C257.337,1.041,262.908,6.542,262.908,13.327"/>
	<rect x="2.199" y="98.11" clip-path="url(#SVGID_2_)" fill="#FFFFFF" width="174.625" height="8.687"/>
	<path clip-path="url(#SVGID_2_)" fill="#DB4D69" d="M183.891,102.453c0-3.9,3.162-7.063,7.063-7.063s7.064,3.163,7.064,7.063
		c0,3.901-3.163,7.064-7.064,7.064S183.891,106.354,183.891,102.453"/>
	<path clip-path="url(#SVGID_2_)" fill="#F69240" d="M205.588,102.453c0-3.9,3.163-7.063,7.064-7.063s7.063,3.163,7.063,7.063
		c0,3.901-3.162,7.064-7.063,7.064S205.588,106.354,205.588,102.453"/>
	<path clip-path="url(#SVGID_2_)" fill="#EBE945" d="M234.351,95.39c3.901,0,7.063,3.162,7.063,7.063s-3.162,7.064-7.063,7.064
		s-7.064-3.163-7.064-7.064S230.449,95.39,234.351,95.39"/>
	<path clip-path="url(#SVGID_2_)" fill="#00ADD0" d="M256.049,95.39c3.9,0,7.063,3.162,7.063,7.063s-3.163,7.064-7.063,7.064
		c-3.901,0-7.064-3.163-7.064-7.064S252.147,95.39,256.049,95.39"/>
	<path clip-path="url(#SVGID_2_)" fill="#61C550" d="M277.747,95.39c3.9,0,7.063,3.162,7.063,7.063s-3.163,7.064-7.063,7.064
		c-3.901,0-7.064-3.163-7.064-7.064S273.846,95.39,277.747,95.39"/>
</g>
</svg>
